# xmcd
#
# Track frame offsets:
#	182
#	16272
#	29790
#	42802
#	54252
#	68510
#	84575
#	99547
#	115467
#	130405
#	146255
#	162130
#	175810
#	189927
#	203580
#
# Disc length: 2927 seconds
#
# Revision: 1
# Processed by: cddbd v1.5.2PL0 Copyright (c) Steve Scherf et al.
# Submitted via: audiograbber 1.83.01
#
DISCID=c00b6d0f
DTITLE=AA.VV. - 058 - Vita in campagna
DYEAR=1994
DGENRE=Folk
TTITLE0=C.Buti - Reginella campagnola
TTITLE1=B.Gigli - Se vuoi goder la vita
TTITLE2=R.Carosone - Amor di pastorello
TTITLE3=L.Tajoli - La strada nel bosco
TTITLE4=O.Spadaro - Sulla carrozzella
TTITLE5=C.Villa - Usignolo
TTITLE6=N.Otto - Op op trotta cavallino
TTITLE7=L.Tajoli - Usignuolo
TTITLE8=T.Pane - Il torrente
TTITLE9=L.Tajoli - Torna al tuo paesello
TTITLE10=G.Vanorio - Mmiezz'o ggrano
TTITLE11=F.Trincale - Il cacciatore nel bosco
TTITLE12=A.Rabagliati-Trio Lescano - La canzone del boscaiolo
TTITLE13=Barbàn - Fala balà/Saltarello
TTITLE14=S.Casadei - Mezzogiorno
EXTD=
EXTT0=
EXTT1=
EXTT2=
EXTT3=
EXTT4=
EXTT5=
EXTT6=
EXTT7=
EXTT8=
EXTT9=
EXTT10=
EXTT11=
EXTT12=
EXTT13=
EXTT14=
PLAYORDER=
